# xmcd CD database file
#
# Track frame offsets:
#	225
#	14232
#	26846
#	38365
#	51681
#	65994
#	76079
#	91206
#	105316
#	120794
#	132896
#	154950
#	169898
#	184501
#	194992
#	209300
#
# Disc length: 2950 seconds
#
# Revision: 0
# Processed by: cddbd v1.5.1PL0 Copyright (c) Steve Scherf et al.
# Submitted via: CDex 1.51
#
DISCID=df0b8310
DTITLE=Various Artist - Now That's Jazz [CD 1)
DYEAR=1900
DGENRE=Jazz
TTITLE0=Count Basie - Swinging The Blues
TTITLE1=Tommy Dorsey - You're My Everything
TTITLE2=Woody Herman - Stompin' At The Savoy
TTITLE3=Harry James - Stardust
TTITLE4=Duke Ellingston - Sophisticated Lady
TTITLE5=Benny Goodman - Fascinating Rhythm
TTITLE6=Monty Sunshine Band - Margie
TTITLE7=Frank Sinatra - Begin The Beguine
TTITLE8=Glenn Miller - Chattanooga Choo Choo
TTITLE9=Artie Shaw - It's A Long Way To Tipperary
TTITLE10=Ken Coyler and his Jazzmen - We Shall Walk Through The Streets Of The City
TTITLE11=Lionell Hampton - Stella By Starlight
TTITLE12=Ella Fitzgerald - Undecided
TTITLE13=Louis Prima - Pennies From Heaven
TTITLE14=Gene Krupa - Drummin' Man
TTITLE15=Lena Horn - Night And Day
EXTD=
EXTT0=
EXTT1=
EXTT2=
EXTT3=
EXTT4=
EXTT5=
EXTT6=
EXTT7=
EXTT8=
EXTT9=
EXTT10=
EXTT11=
EXTT12=
EXTT13=
EXTT14=
EXTT15=
PLAYORDER=
